<?xml version="1.0" encoding="UTF-8"?>
<!DOCTYPE svg PUBLIC "-//W3C//DTD SVG 1.1//EN" "http://www.w3.org/Graphics/SVG/1.1/DTD/svg11.dtd">
<svg xmlns="http://www.w3.org/2000/svg" version="1.1" width="661px" height="181px" style="shape-rendering:geometricPrecision; text-rendering:geometricPrecision; image-rendering:optimizeQuality; fill-rule:evenodd; clip-rule:evenodd" xmlns:xlink="http://www.w3.org/1999/xlink">
<g><path style="opacity:1" fill="#0db4bc" d="M -0.5,-0.5 C 34.1667,-0.5 68.8333,-0.5 103.5,-0.5C 103.389,0.117425 103.056,0.617425 102.5,1C 105.5,1.33333 108.5,1.66667 111.5,2C 108.833,2.33333 106.167,2.66667 103.5,3C 108.833,3.66667 108.833,4.33333 103.5,5C 106.167,5.33333 108.833,5.66667 111.5,6C 109.167,6.33333 106.833,6.66667 104.5,7C 108.5,7.66667 108.5,8.33333 104.5,9C 108.5,9.66667 108.5,10.3333 104.5,11C 112.834,11.5205 113.167,12.1872 105.5,13C 108.167,13.6667 108.167,14.3333 105.5,15C 108.833,15.3333 112.167,15.6667 115.5,16C 112.5,16.3333 109.5,16.6667 106.5,17C 107.833,17.6667 107.833,18.3333 106.5,19C 109.5,19.3333 112.5,19.6667 115.5,20C 112.854,20.4974 110.187,20.6641 107.5,20.5C 107.5,21.5 107.5,22.5 107.5,23.5C 110.187,23.3359 112.854,23.5026 115.5,24C 113.167,24.3333 110.833,24.6667 108.5,25C 112.5,25.6667 112.5,26.3333 108.5,27C 116.834,27.5205 117.167,28.1872 109.5,29C 112.167,29.6667 112.167,30.3333 109.5,31C 112.833,31.3333 116.167,31.6667 119.5,32C 116.5,32.3333 113.5,32.6667 110.5,33C 117.167,33.6667 117.167,34.3333 110.5,35C 113.5,35.3333 116.5,35.6667 119.5,36C 116.833,36.3333 114.167,36.6667 111.5,37C 115.852,37.4189 116.185,38.0855 112.5,39C 121.833,39.6667 121.833,40.3333 112.5,41C 115.544,41.3589 115.878,42.0255 113.5,43C 121.5,43.6667 121.5,44.3333 113.5,45C 115.301,45.3173 115.634,45.984 114.5,47C 117.5,47.3333 120.5,47.6667 123.5,48C 120.833,48.3333 118.167,48.6667 115.5,49C 120.833,49.6667 120.833,50.3333 115.5,51C 118.167,51.3333 120.833,51.6667 123.5,52C 121.167,52.3333 118.833,52.6667 116.5,53C 119.544,53.3589 119.878,54.0255 117.5,55C 125.5,55.6667 125.5,56.3333 117.5,57C 119.301,57.3173 119.634,57.984 118.5,59C 125.167,59.6667 125.167,60.3333 118.5,61C 121.028,63.0574 124.028,64.0574 127.5,64C 125.167,64.3333 122.833,64.6667 120.5,65C 124.5,65.6667 124.5,66.3333 120.5,67C 128.834,67.5205 129.167,68.1872 121.5,69C 123.301,69.3173 123.634,69.984 122.5,71C 124.134,71.4935 125.801,71.6602 127.5,71.5C 126.374,89.1353 126.208,106.802 127,124.5C 129.573,131.027 134.406,133.361 141.5,131.5C 146.167,131.5 150.833,131.5 155.5,131.5C 153.369,132.314 151.036,132.814 148.5,133C 151.544,133.359 151.878,134.026 149.5,135C 152.833,135.333 156.167,135.667 159.5,136C 156.5,136.333 153.5,136.667 150.5,137C 156.175,137.464 156.508,138.131 151.5,139C 154.167,139.333 156.833,139.667 159.5,140C 157.167,140.333 154.833,140.667 152.5,141C 155.544,141.359 155.878,142.026 153.5,143C 156.833,143.333 160.167,143.667 163.5,144C 160.5,144.333 157.5,144.667 154.5,145C 157.028,147.057 160.028,148.057 163.5,148C 161.167,148.333 158.833,148.667 156.5,149C 159.544,149.359 159.878,150.026 157.5,151C 160.833,151.333 164.167,151.667 167.5,152C 164.5,152.333 161.5,152.667 158.5,153C 164.175,153.464 164.508,154.131 159.5,155C 162.167,155.333 164.833,155.667 167.5,156C 165.167,156.333 162.833,156.667 160.5,157C 163.544,157.359 163.878,158.026 161.5,159C 164.833,159.333 168.167,159.667 171.5,160C 168.5,160.333 165.5,160.667 162.5,161C 164.167,161.333 165.833,161.667 167.5,162C 166.5,162.333 165.5,162.667 164.5,163C 172.834,163.521 173.167,164.187 165.5,165C 167.301,165.317 167.634,165.984 166.5,167C 169.5,167.333 172.5,167.667 175.5,168C 172.833,168.333 170.167,168.667 167.5,169C 171.852,169.419 172.185,170.086 168.5,171C 176.834,171.521 177.167,172.187 169.5,173C 172.51,174.921 175.844,175.921 179.5,176C 177.167,176.333 174.833,176.667 172.5,177C 175.544,177.359 175.878,178.026 173.5,179C 175.708,179.191 177.708,179.691 179.5,180.5C 119.5,180.5 59.5,180.5 -0.5,180.5C -0.5,120.167 -0.5,59.8333 -0.5,-0.5 Z"/></g>
<g><path style="opacity:1" fill="#18b7bf" d="M 103.5,-0.5 C 160.833,-0.5 218.167,-0.5 275.5,-0.5C 275.082,0.221579 274.416,0.721579 273.5,1C 276.833,1.33333 280.167,1.66667 283.5,2C 280.5,2.33333 277.5,2.66667 274.5,3C 277.028,5.05736 280.028,6.05736 283.5,6C 280.833,6.33333 278.167,6.66667 275.5,7C 279.852,7.41888 280.185,8.08555 276.5,9C 279.544,9.35886 279.878,10.0255 277.5,11C 285.5,11.6667 285.5,12.3333 277.5,13C 279.301,13.3173 279.634,13.984 278.5,15C 281.5,15.3333 284.5,15.6667 287.5,16C 284.833,16.3333 282.167,16.6667 279.5,17C 284.833,17.6667 284.833,18.3333 279.5,19C 282.167,19.3333 284.833,19.6667 287.5,20C 285.167,20.3333 282.833,20.6667 280.5,21C 283.544,21.3589 283.878,22.0255 281.5,23C 284.833,23.3333 288.167,23.6667 291.5,24C 288.5,24.3333 285.5,24.6667 282.5,25C 285.028,27.0574 288.028,28.0574 291.5,28C 288.833,28.3333 286.167,28.6667 283.5,29C 287.852,29.4189 288.185,30.0855 284.5,31C 292.834,31.5205 293.167,32.1872 285.5,33C 288.167,33.6667 288.167,34.3333 285.5,35C 292.503,35.4966 292.837,36.1632 286.5,37C 289.028,39.0574 292.028,40.0574 295.5,40C 293.167,40.3333 290.833,40.6667 288.5,41C 291.544,41.3589 291.878,42.0255 289.5,43C 296.503,43.4966 296.837,44.1632 290.5,45C 293.028,47.0574 296.028,48.0574 299.5,48C 297.167,48.3333 294.833,48.6667 292.5,49C 296.5,49.6667 296.5,50.3333 292.5,51C 300.834,51.5205 301.167,52.1872 293.5,53C 295.301,53.3173 295.634,53.984 294.5,55C 297.5,55.3333 300.5,55.6667 303.5,56C 300.833,56.3333 298.167,56.6667 295.5,57C 299.852,57.4189 300.185,58.0855 296.5,59C 304.834,59.5205 305.167,60.1872 297.5,61C 299.301,61.3173 299.634,61.984 298.5,63C 301.5,63.3333 304.5,63.6667 307.5,64C 304.833,64.3333 302.167,64.6667 299.5,65C 301.058,65.21 302.391,65.71 303.5,66.5C 268.123,66.1734 232.79,66.5068 197.5,67.5C 196.808,68.0253 196.308,68.6919 196,69.5C 195.179,89.8767 195.345,110.21 196.5,130.5C 197.025,131.192 197.692,131.692 198.5,132C 246.832,132.5 295.166,132.667 343.5,132.5C 344.609,133.29 345.942,133.79 347.5,134C 346.833,134.333 346.167,134.667 345.5,135C 348.833,135.333 352.167,135.667 355.5,136C 343.897,136.421 343.897,137.755 355.5,140C 353.5,140.333 351.5,140.667 349.5,141C 353.864,143.064 358.53,144.064 363.5,144C 360.167,144.333 356.833,144.667 353.5,145C 355.301,145.317 355.634,145.984 354.5,147C 357.5,147.333 360.5,147.667 363.5,148C 361.167,148.333 358.833,148.667 356.5,149C 357.5,149.333 358.5,149.667 359.5,150C 359.167,150.333 358.833,150.667 358.5,151C 362.833,151.333 367.167,151.667 371.5,152C 367.833,152.333 364.167,152.667 360.5,153C 363.544,153.359 363.878,154.026 361.5,155C 364.833,155.333 368.167,155.667 371.5,156C 369.167,156.333 366.833,156.667 364.5,157C 367.544,157.359 367.878,158.026 365.5,159C 368.833,159.333 372.167,159.667 375.5,160C 372.833,160.333 370.167,160.667 367.5,161C 368.833,161.333 370.167,161.667 371.5,162C 370.833,162.333 370.167,162.667 369.5,163C 372.833,163.333 376.167,163.667 379.5,164C 376.833,164.333 374.167,164.667 371.5,165C 372.833,165.333 374.167,165.667 375.5,166C 374.833,166.333 374.167,166.667 373.5,167C 378.167,167.333 382.833,167.667 387.5,168C 383.5,168.333 379.5,168.667 375.5,169C 376.833,169.333 378.167,169.667 379.5,170C 378.833,170.333 378.167,170.667 377.5,171C 380.833,171.333 384.167,171.667 387.5,172C 384.833,172.333 382.167,172.667 379.5,173C 380.833,173.333 382.167,173.667 383.5,174C 382.833,174.333 382.167,174.667 381.5,175C 386.167,175.333 390.833,175.667 395.5,176C 391.5,176.333 387.5,176.667 383.5,177C 384.833,177.333 386.167,177.667 387.5,178C 386.833,178.333 386.167,178.667 385.5,179C 389.025,179.179 392.359,179.679 395.5,180.5C 323.5,180.5 251.5,180.5 179.5,180.5C 177.708,179.691 175.708,179.191 173.5,179C 175.878,178.026 175.544,177.359 172.5,177C 174.833,176.667 177.167,176.333 179.5,176C 175.844,175.921 172.51,174.921 169.5,173C 177.167,172.187 176.834,171.521 168.5,171C 172.185,170.086 171.852,169.419 167.5,169C 170.167,168.667 172.833,168.333 175.5,168C 172.5,167.667 169.5,167.333 166.5,167C 167.634,165.984 167.301,165.317 165.5,165C 173.167,164.187 172.834,163.521 164.5,163C 165.5,162.667 166.5,162.333 167.5,162C 165.833,161.667 164.167,161.333 162.5,161C 165.5,160.667 168.5,160.333 171.5,160C 168.167,159.667 164.833,159.333 161.5,159C 163.878,158.026 163.544,157.359 160.5,157C 162.833,156.667 165.167,156.333 167.5,156C 164.833,155.667 162.167,155.333 159.5,155C 164.508,154.131 164.175,153.464 158.5,153C 161.5,152.667 164.5,152.333 167.5,152C 164.167,151.667 160.833,151.333 157.5,151C 159.878,150.026 159.544,149.359 156.5,149C 158.833,148.667 161.167,148.333 163.5,148C 160.028,148.057 157.028,147.057 154.5,145C 157.5,144.667 160.5,144.333 163.5,144C 160.167,143.667 156.833,143.333 153.5,143C 155.878,142.026 155.544,141.359 152.5,141C 154.833,140.667 157.167,140.333 159.5,140C 156.833,139.667 154.167,139.333 151.5,139C 156.508,138.131 156.175,137.464 150.5,137C 153.5,136.667 156.5,136.333 159.5,136C 156.167,135.667 152.833,135.333 149.5,135C 151.878,134.026 151.544,133.359 148.5,133C 151.036,132.814 153.369,132.314 155.5,131.5C 156.167,131.5 156.833,131.5 157.5,131.5C 163.167,131.5 168.833,131.5 174.5,131.5C 180.031,131.823 183.864,129.49 186,124.5C 186.167,116.167 186.333,107.833 186.5,99.5C 186.626,90.0959 186.126,80.7626 185,71.5C 182.349,68.924 179.182,67.5907 175.5,67.5C 169.833,67.5 164.167,67.5 158.5,67.5C 152.833,67.5 147.167,67.5 141.5,67.5C 136.135,66.7403 131.468,68.0736 127.5,71.5C 125.801,71.6602 124.134,71.4935 122.5,71C 123.634,69.984 123.301,69.3173 121.5,69C 129.167,68.1872 128.834,67.5205 120.5,67C 124.5,66.3333 124.5,65.6667 120.5,65C 122.833,64.6667 125.167,64.3333 127.5,64C 124.028,64.0574 121.028,63.0574 118.5,61C 125.167,60.3333 125.167,59.6667 118.5,59C 119.634,57.984 119.301,57.3173 117.5,57C 125.5,56.3333 125.5,55.6667 117.5,55C 119.878,54.0255 119.544,53.3589 116.5,53C 118.833,52.6667 121.167,52.3333 123.5,52C 120.833,51.6667 118.167,51.3333 115.5,51C 120.833,50.3333 120.833,49.6667 115.5,49C 118.167,48.6667 120.833,48.3333 123.5,48C 120.5,47.6667 117.5,47.3333 114.5,47C 115.634,45.984 115.301,45.3173 113.5,45C 121.5,44.3333 121.5,43.6667 113.5,43C 115.878,42.0255 115.544,41.3589 112.5,41C 121.833,40.3333 121.833,39.6667 112.5,39C 116.185,38.0855 115.852,37.4189 111.5,37C 114.167,36.6667 116.833,36.3333 119.5,36C 116.5,35.6667 113.5,35.3333 110.5,35C 117.167,34.3333 117.167,33.6667 110.5,33C 113.5,32.6667 116.5,32.3333 119.5,32C 116.167,31.6667 112.833,31.3333 109.5,31C 112.167,30.3333 112.167,29.6667 109.5,29C 117.167,28.1872 116.834,27.5205 108.5,27C 112.5,26.3333 112.5,25.6667 108.5,25C 110.833,24.6667 113.167,24.3333 115.5,24C 112.854,23.5026 110.187,23.3359 107.5,23.5C 107.5,22.5 107.5,21.5 107.5,20.5C 110.187,20.6641 112.854,20.4974 115.5,20C 112.5,19.6667 109.5,19.3333 106.5,19C 107.833,18.3333 107.833,17.6667 106.5,17C 109.5,16.6667 112.5,16.3333 115.5,16C 112.167,15.6667 108.833,15.3333 105.5,15C 108.167,14.3333 108.167,13.6667 105.5,13C 113.167,12.1872 112.834,11.5205 104.5,11C 108.5,10.3333 108.5,9.66667 104.5,9C 108.5,8.33333 108.5,7.66667 104.5,7C 106.833,6.66667 109.167,6.33333 111.5,6C 108.833,5.66667 106.167,5.33333 103.5,5C 108.833,4.33333 108.833,3.66667 103.5,3C 106.167,2.66667 108.833,2.33333 111.5,2C 108.5,1.66667 105.5,1.33333 102.5,1C 103.056,0.617425 103.389,0.117425 103.5,-0.5 Z"/></g>
<g><path style="opacity:1" fill="#26bbc3" d="M 275.5,-0.5 C 331.5,-0.5 387.5,-0.5 443.5,-0.5C 444.23,1.04504 445.563,1.87838 447.5,2C 443.5,2.66667 443.5,3.33333 447.5,4C 446.833,4.33333 446.167,4.66667 445.5,5C 446.833,5.33333 448.167,5.66667 449.5,6C 448.692,6.30762 448.025,6.80762 447.5,7.5C 449.645,9.82973 450.978,12.1631 451.5,14.5C 452.729,15.2811 454.062,15.7811 455.5,16C 454.833,16.3333 454.167,16.6667 453.5,17C 453.952,18.6124 455.285,19.6124 457.5,20C 456.833,20.3333 456.167,20.6667 455.5,21C 456.833,22 458.167,23 459.5,24C 458.542,25.1475 458.875,26.1475 460.5,27C 463.544,27.3589 463.878,28.0255 461.5,29C 463.226,30.5298 465.226,31.5298 467.5,32C 466.5,32.3333 465.5,32.6667 464.5,33C 466.167,34 467.833,35 469.5,36C 468.833,36.3333 468.167,36.6667 467.5,37C 469.226,38.5298 471.226,39.5298 473.5,40C 470.833,40.6667 470.833,41.3333 473.5,42C 473.167,42.3333 472.833,42.6667 472.5,43C 473.929,44.9816 476.262,46.6483 479.5,48C 478.359,48.7412 478.359,49.5745 479.5,50.5C 480.729,51.2811 482.062,51.7811 483.5,52C 482.833,52.3333 482.167,52.6667 481.5,53C 483.226,54.5298 485.226,55.5298 487.5,56C 486.833,56.3333 486.167,56.6667 485.5,57C 487.226,58.5298 489.226,59.5298 491.5,60C 490.833,60.3333 490.167,60.6667 489.5,61C 491.275,62.4389 493.275,63.4389 495.5,64C 494.402,64.7697 494.402,65.603 495.5,66.5C 431.5,66.5 367.5,66.5 303.5,66.5C 302.391,65.71 301.058,65.21 299.5,65C 302.167,64.6667 304.833,64.3333 307.5,64C 304.5,63.6667 301.5,63.3333 298.5,63C 299.634,61.984 299.301,61.3173 297.5,61C 305.167,60.1872 304.834,59.5205 296.5,59C 300.185,58.0855 299.852,57.4189 295.5,57C 298.167,56.6667 300.833,56.3333 303.5,56C 300.5,55.6667 297.5,55.3333 294.5,55C 295.634,53.984 295.301,53.3173 293.5,53C 301.167,52.1872 300.834,51.5205 292.5,51C 296.5,50.3333 296.5,49.6667 292.5,49C 294.833,48.6667 297.167,48.3333 299.5,48C 296.028,48.0574 293.028,47.0574 290.5,45C 296.837,44.1632 296.503,43.4966 289.5,43C 291.878,42.0255 291.544,41.3589 288.5,41C 290.833,40.6667 293.167,40.3333 295.5,40C 292.028,40.0574 289.028,39.0574 286.5,37C 292.837,36.1632 292.503,35.4966 285.5,35C 288.167,34.3333 288.167,33.6667 285.5,33C 293.167,32.1872 292.834,31.5205 284.5,31C 288.185,30.0855 287.852,29.4189 283.5,29C 286.167,28.6667 288.833,28.3333 291.5,28C 288.028,28.0574 285.028,27.0574 282.5,25C 285.5,24.6667 288.5,24.3333 291.5,24C 288.167,23.6667 284.833,23.3333 281.5,23C 283.878,22.0255 283.544,21.3589 280.5,21C 282.833,20.6667 285.167,20.3333 287.5,20C 284.833,19.6667 282.167,19.3333 279.5,19C 284.833,18.3333 284.833,17.6667 279.5,17C 282.167,16.6667 284.833,16.3333 287.5,16C 284.5,15.6667 281.5,15.3333 278.5,15C 279.634,13.984 279.301,13.3173 277.5,13C 285.5,12.3333 285.5,11.6667 277.5,11C 279.878,10.0255 279.544,9.35886 276.5,9C 280.185,8.08555 279.852,7.41888 275.5,7C 278.167,6.66667 280.833,6.33333 283.5,6C 280.028,6.05736 277.028,5.05736 274.5,3C 277.5,2.66667 280.5,2.33333 283.5,2C 280.167,1.66667 276.833,1.33333 273.5,1C 274.416,0.721579 275.082,0.221579 275.5,-0.5 Z"/></g>
<g><path style="opacity:1" fill="#2fbec5" d="M 443.5,-0.5 C 515.167,-0.5 586.833,-0.5 658.5,-0.5C 658.5,42.1667 658.5,84.8333 658.5,127.5C 649.73,128.118 641.23,127.452 633,125.5C 631.333,125.833 629.667,126.167 628,126.5C 621.481,124.521 614.148,122.854 606,121.5C 603.943,122.14 601.777,121.973 599.5,121C 600.833,120.667 602.167,120.333 603.5,120C 596.695,119.474 590.362,118.474 584.5,117C 585.5,116.667 586.5,116.333 587.5,116C 584.5,115.667 581.5,115.333 578.5,115C 578.833,114.667 579.167,114.333 579.5,114C 577.5,113.667 575.5,113.333 573.5,113C 574.167,112.667 574.833,112.333 575.5,112C 569.758,110.812 564.091,109.145 558.5,107C 558.833,106.667 559.167,106.333 559.5,106C 557.833,105.667 556.167,105.333 554.5,105C 554.833,104.667 555.167,104.333 555.5,104C 552.21,103.747 549.21,102.747 546.5,101C 546.833,100.667 547.167,100.333 547.5,100C 545.833,99.6667 544.167,99.3333 542.5,99C 542.833,98.6667 543.167,98.3333 543.5,98C 542.207,97.51 540.873,97.3433 539.5,97.5C 539.666,88.1607 539.5,78.8274 539,69.5C 538.692,68.6919 538.192,68.0253 537.5,67.5C 523.549,66.5175 509.549,66.1841 495.5,66.5C 494.402,65.603 494.402,64.7697 495.5,64C 493.275,63.4389 491.275,62.4389 489.5,61C 490.167,60.6667 490.833,60.3333 491.5,60C 489.226,59.5298 487.226,58.5298 485.5,57C 486.167,56.6667 486.833,56.3333 487.5,56C 485.226,55.5298 483.226,54.5298 481.5,53C 482.167,52.6667 482.833,52.3333 483.5,52C 482.062,51.7811 480.729,51.2811 479.5,50.5C 478.359,49.5745 478.359,48.7412 479.5,48C 476.262,46.6483 473.929,44.9816 472.5,43C 472.833,42.6667 473.167,42.3333 473.5,42C 470.833,41.3333 470.833,40.6667 473.5,40C 471.226,39.5298 469.226,38.5298 467.5,37C 468.167,36.6667 468.833,36.3333 469.5,36C 467.833,35 466.167,34 464.5,33C 465.5,32.6667 466.5,32.3333 467.5,32C 465.226,31.5298 463.226,30.5298 461.5,29C 463.878,28.0255 463.544,27.3589 460.5,27C 458.875,26.1475 458.542,25.1475 459.5,24C 458.167,23 456.833,22 455.5,21C 456.167,20.6667 456.833,20.3333 457.5,20C 455.285,19.6124 453.952,18.6124 453.5,17C 454.167,16.6667 454.833,16.3333 455.5,16C 454.062,15.7811 452.729,15.2811 451.5,14.5C 450.978,12.1631 449.645,9.82973 447.5,7.5C 448.025,6.80762 448.692,6.30762 449.5,6C 448.167,5.66667 446.833,5.33333 445.5,5C 446.167,4.66667 446.833,4.33333 447.5,4C 443.5,3.33333 443.5,2.66667 447.5,2C 445.563,1.87838 444.23,1.04504 443.5,-0.5 Z"/></g>
<g><path style="opacity:1" fill="#fefffe" d="M 658.5,-0.5 C 659.167,-0.5 659.833,-0.5 660.5,-0.5C 660.5,59.8333 660.5,120.167 660.5,180.5C 659.833,180.5 659.167,180.5 658.5,180.5C 658.5,162.833 658.5,145.167 658.5,127.5C 658.5,84.8333 658.5,42.1667 658.5,-0.5 Z"/></g>
<g><path style="opacity:1" fill="#666bfe" d="M 303.5,66.5 C 367.5,66.5 431.5,66.5 495.5,66.5C 509.549,66.1841 523.549,66.5175 537.5,67.5C 538.192,68.0253 538.692,68.6919 539,69.5C 539.5,78.8274 539.666,88.1607 539.5,97.5C 539.667,108.172 539.5,118.839 539,129.5C 538.5,130.667 537.667,131.5 536.5,132C 472.168,132.5 407.834,132.667 343.5,132.5C 295.166,132.667 246.832,132.5 198.5,132C 197.692,131.692 197.025,131.192 196.5,130.5C 195.345,110.21 195.179,89.8767 196,69.5C 196.308,68.6919 196.808,68.0253 197.5,67.5C 232.79,66.5068 268.123,66.1734 303.5,66.5 Z"/></g>
<g><path style="opacity:1" fill="#fdc901" d="M 141.5,67.5 C 147.167,67.5 152.833,67.5 158.5,67.5C 158.106,72.8017 157.772,78.135 157.5,83.5C 144.682,88.1387 140.849,96.8053 146,109.5C 148.029,112.596 150.862,114.262 154.5,114.5C 155.568,115.434 156.901,115.768 158.5,115.5C 158.106,120.802 157.772,126.135 157.5,131.5C 156.833,131.5 156.167,131.5 155.5,131.5C 150.833,131.5 146.167,131.5 141.5,131.5C 141.5,110.167 141.5,88.8333 141.5,67.5 Z"/></g>
<g><path style="opacity:1" fill="#f9df04" d="M 158.5,67.5 C 164.167,67.5 169.833,67.5 175.5,67.5C 175.167,88.8333 174.833,110.167 174.5,131.5C 168.833,131.5 163.167,131.5 157.5,131.5C 157.772,126.135 158.106,120.802 158.5,115.5C 156.901,115.768 155.568,115.434 154.5,114.5C 156.857,114.663 159.19,114.497 161.5,114C 163.861,113.803 165.528,112.636 166.5,110.5C 166,109.119 165,108.453 163.5,108.5C 158.813,110.529 154.979,109.529 152,105.5C 151.182,98.3163 154.182,95.3163 161,96.5C 172.915,88.9704 171.749,84.637 157.5,83.5C 157.772,78.135 158.106,72.8017 158.5,67.5 Z"/></g>
<g><path style="opacity:1" fill="#22b7bf" d="M 198.5,68.5 C 311.167,68.3333 423.834,68.5 536.5,69C 537.659,89.0935 537.826,109.26 537,129.5C 424.236,130.665 311.403,130.832 198.5,130C 197.172,109.5 197.172,89 198.5,68.5 Z"/></g>
<g><path style="opacity:1" fill="#efec18" d="M 175.5,67.5 C 179.182,67.5907 182.349,68.924 185,71.5C 186.126,80.7626 186.626,90.0959 186.5,99.5C 186.333,107.833 186.167,116.167 186,124.5C 183.864,129.49 180.031,131.823 174.5,131.5C 174.833,110.167 175.167,88.8333 175.5,67.5 Z"/></g>
<g><path style="opacity:1" fill="#fdb702" d="M 141.5,67.5 C 141.5,88.8333 141.5,110.167 141.5,131.5C 134.406,133.361 129.573,131.027 127,124.5C 126.208,106.802 126.374,89.1353 127.5,71.5C 131.468,68.0736 136.135,66.7403 141.5,67.5 Z"/></g>
<g><path style="opacity:1" fill="#121717" d="M 214.5,76.5 C 224.062,75.4254 230.062,79.4254 232.5,88.5C 232.597,91.9114 230.93,93.2447 227.5,92.5C 227.463,84.3159 223.463,81.1493 215.5,83C 214.333,84.1667 213.167,85.3333 212,86.5C 211.091,92.6123 211.424,98.6123 213,104.5C 221.047,109.315 226.047,106.981 228,97.5C 229.333,96.1667 230.667,96.1667 232,97.5C 231.775,109.559 225.608,114.392 213.5,112C 209.687,109.876 207.187,106.709 206,102.5C 205.333,97.1667 205.333,91.8333 206,86.5C 207.978,82.3619 210.811,79.0286 214.5,76.5 Z"/></g>
<g><path style="opacity:1" fill="#111313" d="M 236.5,76.5 C 237.822,76.33 238.989,76.6634 240,77.5C 240.333,85.5 240.667,93.5 241,101.5C 243.113,105.558 246.446,107.891 251,108.5C 251.684,109.784 251.517,110.951 250.5,112C 244.518,113.039 240.018,110.873 237,105.5C 235.219,95.8316 235.053,86.1649 236.5,76.5 Z"/></g>
<g><path style="opacity:1" fill="#151e1e" d="M 330.5,76.5 C 334.35,76.7007 335.35,78.5341 333.5,82C 329.537,82.1177 328.537,80.2843 330.5,76.5 Z"/></g>
<g><path style="opacity:1" fill="#121414" d="M 282.5,76.5 C 283.822,76.33 284.989,76.6634 286,77.5C 286.498,80.4816 286.665,83.4816 286.5,86.5C 289.85,86.335 293.183,86.5017 296.5,87C 297.833,88.3333 297.833,89.6667 296.5,91C 293.183,91.4983 289.85,91.665 286.5,91.5C 283.978,100.772 287.311,106.272 296.5,108C 297.517,109.049 297.684,110.216 297,111.5C 290.093,113.55 285.093,111.217 282,104.5C 281.195,95.0891 281.362,85.7557 282.5,76.5 Z"/></g>
<g><path style="opacity:1" fill="#111414" d="M 301.5,76.5 C 302.822,76.33 303.989,76.6634 305,77.5C 305.333,81.1667 305.667,84.8333 306,88.5C 312.658,85.3334 318.658,86.3334 324,91.5C 324.667,92.8333 325.333,94.1667 326,95.5C 326.667,100.833 326.667,106.167 326,111.5C 324.644,112.38 323.144,112.714 321.5,112.5C 321.789,106.755 321.289,101.088 320,95.5C 315.026,90.066 310.359,90.3993 306,96.5C 305.667,101.5 305.333,106.5 305,111.5C 303.644,112.38 302.144,112.714 300.5,112.5C 300.188,100.42 300.521,88.4197 301.5,76.5 Z"/></g>
<g><path style="opacity:1" fill="#121415" d="M 442.5,76.5 C 443.822,76.33 444.989,76.6634 446,77.5C 446.498,80.4816 446.665,83.4816 446.5,86.5C 449.85,86.335 453.183,86.5017 456.5,87C 457.833,88.3333 457.833,89.6667 456.5,91C 453.183,91.4983 449.85,91.665 446.5,91.5C 443.978,100.772 447.311,106.272 456.5,108C 457.517,109.049 457.684,110.216 457,111.5C 450.093,113.55 445.093,111.217 442,104.5C 441.195,95.0891 441.362,85.7557 442.5,76.5 Z"/></g>
<g><path style="opacity:1" fill="#18b0b4" d="M 157.5,83.5 C 171.749,84.637 172.915,88.9704 161,96.5C 154.182,95.3163 151.182,98.3163 152,105.5C 154.979,109.529 158.813,110.529 163.5,108.5C 165,108.453 166,109.119 166.5,110.5C 165.528,112.636 163.861,113.803 161.5,114C 159.19,114.497 156.857,114.663 154.5,114.5C 150.862,114.262 148.029,112.596 146,109.5C 140.849,96.8053 144.682,88.1387 157.5,83.5 Z"/></g>
<g><path style="opacity:1" fill="#131718" d="M 259.5,86.5 C 275.449,85.5951 280.949,92.5951 276,107.5C 271.426,112.15 265.926,113.65 259.5,112C 248.874,103.467 248.874,94.9667 259.5,86.5 Z"/></g>
<g><path style="opacity:1" fill="#111111" d="M 330.5,86.5 C 331.822,86.33 332.989,86.6634 334,87.5C 334.667,95.5 334.667,103.5 334,111.5C 332.644,112.38 331.144,112.714 329.5,112.5C 329.197,103.749 329.53,95.0823 330.5,86.5 Z"/></g>
<g><path style="opacity:1" fill="#111212" d="M 338.5,86.5 C 342.686,86.7916 347.02,86.9583 351.5,87C 353.286,87.7845 354.786,88.9512 356,90.5C 357.429,97.7194 357.929,105.053 357.5,112.5C 355.856,112.714 354.356,112.38 353,111.5C 352.667,105.833 352.333,100.167 352,94.5C 348.477,90.2986 345.477,90.6319 343,95.5C 342.501,101.157 342.334,106.824 342.5,112.5C 340.856,112.714 339.356,112.38 338,111.5C 337.199,103.088 337.366,94.7548 338.5,86.5 Z"/></g>
<g><path style="opacity:1" fill="#131818" d="M 368.5,86.5 C 372.876,86.114 377.043,86.7806 381,88.5C 382.733,86.3985 384.733,86.0652 387,87.5C 387.667,95.8333 387.667,104.167 387,112.5C 384.468,119.34 379.635,122.507 372.5,122C 370.697,117.453 372.363,115.453 377.5,116C 379.638,114.578 380.805,112.745 381,110.5C 367.311,114.982 360.645,109.982 361,95.5C 362.642,91.6997 365.142,88.6997 368.5,86.5 Z"/></g>
<g><path style="opacity:1" fill="#121516" d="M 416.5,86.5 C 421.844,86.334 427.177,86.5006 432.5,87C 433.833,88.3333 433.833,89.6667 432.5,91C 428.167,91.3333 423.833,91.6667 419.5,92C 418.62,93.3561 418.286,94.8561 418.5,96.5C 423.179,96.3342 427.845,96.5008 432.5,97C 438.158,98.8294 439.992,102.663 438,108.5C 436.833,109.667 435.667,110.833 434.5,112C 429.167,112.667 423.833,112.667 418.5,112C 417.167,110.667 417.167,109.333 418.5,108C 422.833,107.667 427.167,107.333 431.5,107C 433.592,106.047 433.925,104.714 432.5,103C 427.5,102.667 422.5,102.333 417.5,102C 412.931,99.4586 411.431,95.6253 413,90.5C 414.376,89.2949 415.542,87.9616 416.5,86.5 Z"/></g>
<g><path style="opacity:1" fill="#131717" d="M 465.5,86.5 C 479.061,85.2255 484.895,91.2255 483,104.5C 479.2,111.442 473.367,113.942 465.5,112C 454.874,103.467 454.874,94.9667 465.5,86.5 Z"/></g>
<g><path style="opacity:1" fill="#121616" d="M 487.5,86.5 C 489.492,86.3285 491.158,86.9951 492.5,88.5C 495.208,86.5643 498.208,86.0643 501.5,87C 502.833,88.3333 502.833,89.6667 501.5,91C 498.542,91.2293 496.042,92.396 494,94.5C 492.761,100.056 492.094,105.722 492,111.5C 490.333,112.833 488.667,112.833 487,111.5C 486.199,103.088 486.366,94.7548 487.5,86.5 Z"/></g>
<g><path style="opacity:1" fill="#131717" d="M 511.5,86.5 C 522.668,84.9575 528.502,89.6241 529,100.5C 528.5,101 528,101.5 527.5,102C 521.472,102.17 515.472,102.67 509.5,103.5C 512.979,108.095 516.979,108.595 521.5,105C 525.111,103.746 526.611,104.912 526,108.5C 519.264,113.779 512.598,113.779 506,108.5C 500.42,99.3236 502.253,91.9902 511.5,86.5 Z"/></g>
<g><path style="opacity:1" fill="#1bafb6" d="M 262.5,91.5 C 270.149,91.3144 273.315,94.981 272,102.5C 267.333,109.167 262.667,109.167 258,102.5C 256.776,97.626 258.276,93.9593 262.5,91.5 Z"/></g>
<g><path style="opacity:1" fill="#21b2b9" d="M 371.5,91.5 C 379.149,91.3144 382.315,94.981 381,102.5C 380.535,103.931 379.701,105.097 378.5,106C 369.736,108.56 365.902,105.393 367,96.5C 368.025,94.313 369.525,92.6464 371.5,91.5 Z"/></g>
<g><path style="opacity:1" fill="#27b5bd" d="M 466.5,92.5 C 474.661,91.1715 478.495,94.5048 478,102.5C 473.781,108.742 469.115,109.075 464,103.5C 462.812,99.2586 463.645,95.5919 466.5,92.5 Z"/></g>
<g><path style="opacity:1" fill="#28adb4" d="M 513.5,91.5 C 517.387,90.9454 520.387,92.2787 522.5,95.5C 518.167,96.8333 513.833,96.8333 509.5,95.5C 510.867,94.16 512.2,92.8267 513.5,91.5 Z"/></g>
<g><path style="opacity:1" fill="#141919" d="M 391.5,96.5 C 397.176,96.3339 402.843,96.5006 408.5,97C 409.833,98.6667 409.833,100.333 408.5,102C 402.833,102.667 397.167,102.667 391.5,102C 388.982,100.19 388.982,98.3566 391.5,96.5 Z"/></g>
<g><path style="opacity:1" fill="#26bbc3" d="M 539.5,97.5 C 540.873,97.3433 542.207,97.51 543.5,98C 543.167,98.3333 542.833,98.6667 542.5,99C 544.167,99.3333 545.833,99.6667 547.5,100C 547.167,100.333 546.833,100.667 546.5,101C 549.21,102.747 552.21,103.747 555.5,104C 555.167,104.333 554.833,104.667 554.5,105C 556.167,105.333 557.833,105.667 559.5,106C 559.167,106.333 558.833,106.667 558.5,107C 564.091,109.145 569.758,110.812 575.5,112C 574.833,112.333 574.167,112.667 573.5,113C 575.5,113.333 577.5,113.667 579.5,114C 579.167,114.333 578.833,114.667 578.5,115C 581.5,115.333 584.5,115.667 587.5,116C 586.5,116.333 585.5,116.667 584.5,117C 590.362,118.474 596.695,119.474 603.5,120C 602.167,120.333 600.833,120.667 599.5,121C 601.777,121.973 603.943,122.14 606,121.5C 614.148,122.854 621.481,124.521 628,126.5C 629.667,126.167 631.333,125.833 633,125.5C 641.23,127.452 649.73,128.118 658.5,127.5C 658.5,145.167 658.5,162.833 658.5,180.5C 570.833,180.5 483.167,180.5 395.5,180.5C 392.359,179.679 389.025,179.179 385.5,179C 386.167,178.667 386.833,178.333 387.5,178C 386.167,177.667 384.833,177.333 383.5,177C 387.5,176.667 391.5,176.333 395.5,176C 390.833,175.667 386.167,175.333 381.5,175C 382.167,174.667 382.833,174.333 383.5,174C 382.167,173.667 380.833,173.333 379.5,173C 382.167,172.667 384.833,172.333 387.5,172C 384.167,171.667 380.833,171.333 377.5,171C 378.167,170.667 378.833,170.333 379.5,170C 378.167,169.667 376.833,169.333 375.5,169C 379.5,168.667 383.5,168.333 387.5,168C 382.833,167.667 378.167,167.333 373.5,167C 374.167,166.667 374.833,166.333 375.5,166C 374.167,165.667 372.833,165.333 371.5,165C 374.167,164.667 376.833,164.333 379.5,164C 376.167,163.667 372.833,163.333 369.5,163C 370.167,162.667 370.833,162.333 371.5,162C 370.167,161.667 368.833,161.333 367.5,161C 370.167,160.667 372.833,160.333 375.5,160C 372.167,159.667 368.833,159.333 365.5,159C 367.878,158.026 367.544,157.359 364.5,157C 366.833,156.667 369.167,156.333 371.5,156C 368.167,155.667 364.833,155.333 361.5,155C 363.878,154.026 363.544,153.359 360.5,153C 364.167,152.667 367.833,152.333 371.5,152C 367.167,151.667 362.833,151.333 358.5,151C 358.833,150.667 359.167,150.333 359.5,150C 358.5,149.667 357.5,149.333 356.5,149C 358.833,148.667 361.167,148.333 363.5,148C 360.5,147.667 357.5,147.333 354.5,147C 355.634,145.984 355.301,145.317 353.5,145C 356.833,144.667 360.167,144.333 363.5,144C 358.53,144.064 353.864,143.064 349.5,141C 351.5,140.667 353.5,140.333 355.5,140C 343.897,137.755 343.897,136.421 355.5,136C 352.167,135.667 348.833,135.333 345.5,135C 346.167,134.667 346.833,134.333 347.5,134C 345.942,133.79 344.609,133.29 343.5,132.5C 407.834,132.667 472.168,132.5 536.5,132C 537.667,131.5 538.5,130.667 539,129.5C 539.5,118.839 539.667,108.172 539.5,97.5 Z"/></g>
</svg>
