<?xml version="1.0" standalone="no"?>
<!DOCTYPE svg PUBLIC "-//W3C//DTD SVG 20010904//EN"
 "http://www.w3.org/TR/2001/REC-SVG-20010904/DTD/svg10.dtd">
<svg version="1.0" xmlns="http://www.w3.org/2000/svg"
 width="661.000000pt" height="181.000000pt" viewBox="0 0 661.000000 181.000000"
 preserveAspectRatio="xMidYMid meet">

<g transform="translate(0.000000,181.000000) scale(0.100000,-0.100000)"
fill="#000000" stroke="none">
<path d="M3360 1130 c641 -4 1355 -8 1588 -9 l422 -1 0 -305 0 -305 -1694 0
-1693 0 -7 155 c-4 85 -4 226 -1 313 5 124 4 153 -6 138 -18 -29 -7 -605 12
-617 8 -5 735 -9 1696 -9 1515 0 1683 2 1697 16 14 13 16 55 16 307 0 167 -4
298 -10 307 -8 13 -197 15 -1597 16 l-1588 0 1165 -6z"/>
<path d="M2112 1022 c-42 -40 -62 -89 -62 -154 0 -78 16 -122 56 -157 27 -24
44 -31 77 -31 78 0 142 63 135 133 -4 46 -29 40 -54 -12 -24 -51 -50 -65 -94
-49 -39 13 -50 41 -50 127 0 79 16 101 73 101 41 0 77 -36 77 -76 0 -28 30
-33 50 -9 10 12 9 24 -4 60 -22 55 -64 87 -125 93 -41 4 -50 1 -79 -26z"/>
<path d="M2355 990 c-4 -34 -4 -100 0 -146 8 -98 31 -137 92 -153 60 -17 101
19 46 40 -16 6 -40 22 -55 37 -27 25 -28 30 -29 126 -1 115 -8 150 -31 154
-13 2 -17 -10 -23 -58z"/>
<path d="M2815 974 c-10 -104 -2 -207 19 -240 23 -34 75 -55 112 -45 42 11 36
33 -19 58 -52 25 -70 55 -65 107 3 29 6 31 50 36 27 3 54 12 60 19 19 18 -16
41 -64 41 -36 0 -38 2 -38 31 0 37 -16 69 -34 69 -10 0 -16 -22 -21 -76z"/>
<path d="M3006 973 c-3 -42 -6 -125 -6 -185 0 -102 1 -108 20 -108 27 0 40 36
40 110 0 51 3 61 26 79 35 28 65 26 94 -4 19 -21 24 -39 28 -105 4 -69 7 -80
23 -80 10 0 23 9 29 19 14 28 12 126 -4 165 -26 62 -108 96 -173 73 -22 -8
-23 -6 -23 33 0 46 -14 80 -34 80 -9 0 -15 -23 -20 -77z"/>
<path d="M3295 1030 c-8 -25 1 -40 25 -40 22 0 34 28 19 46 -16 20 -37 17 -44
-6z"/>
<path d="M4415 974 c-10 -104 -2 -207 19 -240 23 -34 75 -55 112 -45 42 11 36
33 -19 58 -52 25 -70 55 -65 107 3 29 6 31 50 36 27 3 54 12 60 19 19 18 -16
41 -64 41 -36 0 -38 2 -38 31 0 37 -16 69 -34 69 -10 0 -16 -22 -21 -76z"/>
<path d="M2558 912 c-48 -53 -56 -97 -29 -150 39 -76 99 -100 174 -68 47 20
67 47 74 104 11 95 -27 138 -131 149 -50 5 -53 4 -88 -35z m136 -43 c19 -15
26 -30 26 -54 0 -36 -36 -75 -70 -75 -10 0 -29 9 -44 21 -33 26 -35 75 -6 107
26 28 60 28 94 1z"/>
<path d="M3297 874 c-11 -124 -9 -194 6 -194 33 1 41 19 45 107 4 98 -6 156
-30 161 -12 2 -16 -12 -21 -74z"/>
<path d="M3377 905 c-10 -72 -8 -184 3 -206 6 -10 20 -19 30 -19 18 0 20 7 20
88 0 76 3 91 20 107 17 15 24 16 45 7 23 -11 25 -17 25 -81 0 -86 12 -121 41
-121 22 0 22 2 16 105 -6 105 -15 138 -41 148 -8 3 -45 9 -83 12 l-70 7 -6
-47z"/>
<path d="M3646 910 c-41 -45 -47 -93 -22 -155 21 -51 55 -68 121 -63 39 3 55
1 55 -7 0 -18 -21 -32 -50 -37 -19 -2 -26 -10 -28 -30 -3 -25 0 -28 28 -28 41
0 83 25 106 64 16 26 19 51 19 154 0 131 -8 152 -47 131 -12 -7 -31 -6 -56 1
-66 18 -87 13 -126 -30z m141 -42 c26 -24 31 -73 10 -101 -7 -11 -27 -18 -51
-19 -68 -2 -101 69 -54 119 27 29 65 29 95 1z"/>
<path d="M4141 924 c-27 -35 -27 -76 2 -109 20 -24 33 -28 102 -34 62 -5 80
-9 80 -21 0 -11 -16 -16 -67 -20 -37 -3 -73 -11 -80 -18 -23 -23 18 -42 88
-42 53 0 67 4 94 26 26 22 31 33 28 62 -4 52 -42 75 -129 80 -58 4 -69 7 -67
21 2 12 18 17 65 21 124 10 104 60 -23 60 -66 0 -74 -2 -93 -26z"/>
<path d="M4617 911 c-47 -52 -55 -96 -28 -149 40 -79 107 -103 180 -64 68 36
89 132 45 200 -20 30 -72 52 -123 52 -32 0 -44 -6 -74 -39z m129 -39 c16 -10
34 -48 34 -71 0 -23 -44 -61 -72 -61 -37 0 -68 30 -68 67 0 54 15 73 58 73 20
0 42 -4 48 -8z"/>
<path d="M4866 904 c-9 -71 -7 -183 4 -205 11 -20 35 -25 45 -10 3 5 10 44 15
87 10 79 28 114 60 114 10 0 23 7 30 15 20 24 -6 48 -44 40 -42 -8 -57 -8 -82
0 -19 6 -22 2 -28 -41z"/>
<path d="M5069 911 c-35 -34 -39 -44 -39 -87 0 -62 28 -110 77 -131 62 -25
153 3 153 48 0 27 -23 33 -59 15 -37 -20 -65 -20 -80 -2 -15 18 5 26 64 26 23
0 57 3 74 6 27 6 31 11 31 39 0 38 -35 95 -70 112 -14 7 -45 13 -69 13 -37 0
-49 -5 -82 -39z m129 -33 c22 -22 13 -28 -38 -28 -27 0 -50 4 -50 8 0 29 65
43 88 20z"/>
<path d="M3901 836 c-28 -34 14 -56 105 -56 58 0 96 16 92 37 -4 22 -37 31
-119 32 -45 1 -70 -3 -78 -13z"/>
</g>
</svg>
